<?xml version="1.0" encoding="utf-8"?>
<!-- Generator: Adobe Illustrator 18.0.0, SVG Export Plug-In . SVG Version: 6.00 Build 0)  -->
<!DOCTYPE svg PUBLIC "-//W3C//DTD SVG 1.1//EN" "http://www.w3.org/Graphics/SVG/1.1/DTD/svg11.dtd">
<svg version="1.1" id="Capa_1" xmlns="http://www.w3.org/2000/svg" xmlns:xlink="http://www.w3.org/1999/xlink" x="0px" y="0px"
	 viewBox="-43.1 65.6 141.7 30.9" enable-background="new -43.1 65.6 141.7 30.9" xml:space="preserve">
<path fill="#CECECE" d="M-13.4,75.3c1.5-3.5,1.6-6.5-0.1-8.2c-1.9-2-6.7-1.4-11.6,1c-0.2,0-0.4,0-0.6,0c-3.5,0-6.9,1.3-9.5,3.5
	c-2.2,1.9-3.7,4.5-4.4,7.4c0.5-0.6,3.2-3.8,6.4-5.6c0.1,0,0.8-0.4,0.9-0.5c-0.1,0-1.6,1.5-1.9,1.8c-6.9,7-10.9,17.6-7.8,20.8
	c2,2,5.8,1.5,10.1-0.8c1.9,0.9,3.9,1.3,6.2,1.3c2.9,0,5.7-0.8,8-2.4c2.4-1.6,4.2-4,5.3-6.9h-7.6c-1,1.9-3.3,3.2-5.6,3.2
	c-3.3,0-6.1-2.7-6.1-5.9l0-0.1l0-0.2h0.2h19.8c0-0.1,0-0.2,0-0.3c0-0.5,0.1-1,0.1-1.5C-11.8,79.5-12.3,77.3-13.4,75.3z M-39.9,94.9
	c-1.5-1.5-1.1-4.6,0.8-8.2c0.9,2.5,2.3,4.6,4.2,6.2c0.6,0.5,1.3,1,1.9,1.4C-36,95.8-38.6,96.2-39.9,94.9z M-32.5,94.4
	C-32.5,94.4-32.4,94.4-32.5,94.4C-32.4,94.4-32.5,94.4-32.5,94.4z M-19.8,80h-11.9h-0.1l0-0.1c0.2-3.1,3.1-5.6,6.3-5.6
	c3.1,0,5.7,2.5,5.9,5.6l0,0.1H-19.8z M-16.1,71.8c-1.4-1.3-3-2.2-4.7-2.9c3.2-1.4,5.7-1.6,7.1-0.3c1.1,1.1,1,3.2-0.2,5.9
	c0,0,0,0,0,0C-14.5,73.5-15.2,72.6-16.1,71.8z M-13.6,74.9C-13.6,74.9-13.6,74.9-13.6,74.9C-13.6,74.9-13.6,74.9-13.6,74.9z"/>
<polygon fill="#111111" points="2684.5,1802.4 2684.5,1597.2 2616.2,1597.2 2616.2,1802.4 "/>
<path fill="#9B9B9B" d="M2666.6,1755.6c1.9-4.4,2-8-0.1-10.2c-2.4-2.4-8.3-1.7-14.4,1.2c-0.3,0-0.5,0-0.8,0c-4.4,0-8.6,1.6-11.8,4.4
	c-2.7,2.4-4.6,5.6-5.4,9.1c0.6-0.7,4-4.8,7.9-6.9c0.1,0,1.1-0.6,1.1-0.6c-0.1,0.1-2,1.8-2.3,2.2c-8.6,8.7-13.6,21.9-9.7,25.9
	c2.5,2.5,7.2,1.9,12.5-1c2.3,1.1,4.9,1.6,7.7,1.6c3.6,0,7.1-1,9.9-2.9c3-2,5.3-4.9,6.6-8.5h-9.5c-1.2,2.3-4.1,3.9-7,3.9
	c-4.1,0-7.6-3.4-7.6-7.3l0-0.2l0-0.2h0.2h24.5c0-0.1,0-0.3,0-0.4c0.1-0.6,0.1-1.3,0.1-1.8
	C2668.6,1760.9,2667.9,1758.1,2666.6,1755.6z M2633.8,1779.9c-1.9-1.9-1.4-5.7,1-10.2c1.1,3.1,2.9,5.7,5.2,7.7
	c0.8,0.6,1.6,1.2,2.4,1.7C2638.5,1781,2635.4,1781.5,2633.8,1779.9z M2642.9,1779.3c0,0,0.1,0,0.1,0.1
	C2643,1779.3,2642.9,1779.3,2642.9,1779.3z M2658.7,1761.4h-14.8h-0.2l0-0.2c0.2-3.8,3.8-7,7.8-7c3.9,0,7.1,3.1,7.3,7l0,0.2H2658.7z
	 M2663.3,1751.3c-1.7-1.6-3.7-2.8-5.8-3.6c3.9-1.8,7.1-2,8.8-0.3c1.4,1.4,1.2,4-0.2,7.3c0,0,0,0,0,0
	C2665.3,1753.4,2664.4,1752.3,2663.3,1751.3z M2666.4,1755.2C2666.4,1755.1,2666.4,1755.1,2666.4,1755.2
	C2666.4,1755.1,2666.4,1755.1,2666.4,1755.2z"/>
<g>
	<text transform="matrix(0 -1 1 0 2647.812 1731.5554)" fill="#9B9B9B" font-family="'ArialMT'" font-size="20.3073">DEVELOPER</text>
	<text transform="matrix(0 -1 1 0 2669.5503 1730.075)" fill="#9B9B9B" font-family="'ArialMT'" font-size="20.3073">AWARD</text>
</g>
<g>
	<g>
		<path fill="#CECECE" d="M7.5,66.8h4.2c3.7,0,6,2.1,6,5.8s-2.4,5.9-6,5.9H7.5V66.8z M11.5,76c2,0,3.2-1.2,3.2-3.4
			c0-2.2-1.3-3.4-3.2-3.4h-1.2V76L11.5,76L11.5,76z"/>
		<path fill="#CECECE" d="M19.3,66.8h7.3v2.5h-4.5v2.1h3.6v2.5h-3.6V76h4.7v2.5h-7.6L19.3,66.8L19.3,66.8z"/>
		<path fill="#CECECE" d="M27,66.8h3.1l2.1,6.7c0.2,0.7,0.4,1.9,0.4,1.9h0c0,0,0.2-1.1,0.4-1.9l2.1-6.7h3.1l-4.1,11.7h-3L27,66.8z"
			/>
		<path fill="#CECECE" d="M39.1,66.8h7.3v2.5H42v2.1h3.6v2.5H42V76h4.7v2.5h-7.6L39.1,66.8L39.1,66.8z"/>
		<path fill="#CECECE" d="M48.3,66.8h2.9V76H56v2.5h-7.6L48.3,66.8L48.3,66.8z"/>
		<path fill="#CECECE" d="M62.4,66.6c3.5,0,6.1,2.6,6.1,6c0,3.4-2.6,6.1-6.1,6.1s-6.1-2.7-6.1-6.1C56.2,69.2,58.8,66.6,62.4,66.6z
			 M62.4,76.1c1.8,0,3.2-1.5,3.2-3.5c0-1.9-1.4-3.4-3.2-3.4c-1.8,0-3.2,1.4-3.2,3.4C59.2,74.6,60.6,76.1,62.4,76.1z"/>
		<path fill="#CECECE" d="M70,66.8h4.9c2.3,0,3.8,1.7,3.8,4c0,2.4-1.5,4.1-3.8,4.1h-2v3.6H70C70,78.5,70,66.8,70,66.8z M74.3,72.4
			c1,0,1.5-0.7,1.5-1.6c0-0.9-0.5-1.6-1.4-1.6h-1.5v3.2H74.3z"/>
		<path fill="#CECECE" d="M80,66.8h7.3v2.5h-4.5v2.1h3.6v2.5h-3.6V76h4.7v2.5H80V66.8z"/>
		<path fill="#CECECE" d="M89.2,66.8h4.1c1.2,0,1.8,0.1,2.3,0.3c1.3,0.5,2.2,1.7,2.2,3.4c0,1.2-0.6,2.6-1.8,3.2v0
			c0,0,0.2,0.2,0.4,0.7l2.3,4.1h-3.2l-2.1-3.9H92v3.9h-2.9L89.2,66.8L89.2,66.8z M93.3,72.1c0.9,0,1.5-0.5,1.5-1.4
			c0-0.9-0.3-1.4-1.8-1.4h-1v2.8L93.3,72.1L93.3,72.1z"/>
	</g>
	<g>
		<path fill="#CECECE" d="M14.7,92.3H10L8.7,96H7.5l4.2-11.5H13L17.2,96H16L14.7,92.3z M12.3,85.7c0,0-0.2,0.9-0.4,1.5l-1.5,4.2h4
			l-1.5-4.2C12.6,86.6,12.4,85.7,12.3,85.7L12.3,85.7z"/>
		<path fill="#CECECE" d="M24.2,86.2c0,0-0.2,1-0.4,1.7L21.6,96h-1.4l-3-11.5h1.2l2.2,8.9c0.1,0.6,0.3,1.2,0.3,1.2h0
			c0,0,0.1-0.6,0.3-1.2l2.4-8.9h1.1l2.4,8.9c0.2,0.6,0.2,1.2,0.3,1.2h0c0,0,0.1-0.6,0.3-1.2l2.3-8.9h1.2L28.1,96h-1.4l-2.2-8.1
			C24.4,87.2,24.2,86.2,24.2,86.2L24.2,86.2z"/>
		<path fill="#CECECE" d="M38.3,92.3h-4.6L32.4,96h-1.2l4.2-11.5h1.2L40.9,96h-1.2L38.3,92.3z M36,85.7c0,0-0.2,0.9-0.4,1.5L34,91.4
			h4l-1.5-4.2C36.3,86.6,36,85.7,36,85.7L36,85.7z"/>
		<path fill="#CECECE" d="M42.3,84.5h3.4c1.2,0,1.7,0.1,2.2,0.3c1.1,0.5,1.7,1.6,1.7,3c0,1.6-0.9,2.7-2.2,3.1v0c0,0,0.1,0.1,0.3,0.5
			l2.5,4.6h-1.3l-2.6-4.8h-2.9V96h-1.1L42.3,84.5L42.3,84.5z M46.2,90.1c1.4,0,2.3-0.9,2.3-2.3c0-0.9-0.4-1.7-1-2
			c-0.3-0.2-0.8-0.3-1.6-0.3h-2.3v4.6H46.2z"/>
		<path fill="#CECECE" d="M52.2,84.5h3.7c3.5,0,5.8,2.1,5.8,5.7c0,3.7-2.3,5.8-5.8,5.8h-3.7C52.2,96,52.2,84.5,52.2,84.5z M55.8,95
			c2.8,0,4.7-1.7,4.7-4.7c0-3.1-1.9-4.7-4.7-4.7h-2.5V95H55.8z"/>
	</g>
</g>
</svg>
